<svg width="48" height="28" viewBox="0 0 48 28" fill="none" xmlns="http://www.w3.org/2000/svg">
  <!-- First SVG -->
  <g filter="url(#filter0_d_813_1372)">
    <path d="M12.5 5.64717C12.5 3.57707 10.8211 1.89893 8.75 1.89893C6.67893 1.89893 5 3.57707 5 5.64717V13.1437C5 15.2138 6.67893 16.8919 8.75 16.8919C10.8211 16.8919 12.5 15.2138 12.5 13.1437V5.64717Z" fill="#2E48DE"/>
    <path d="M12.5 5.64717C12.5 3.57707 10.8211 1.89893 8.75 1.89893C6.67893 1.89893 5 3.57707 5 5.64717V13.1437C5 15.2138 6.67893 16.8919 8.75 16.8919C10.8211 16.8919 12.5 15.2138 12.5 13.1437V5.64717Z" stroke="#2E48DE" stroke-width="1.875"/>
  </g>
  <!-- Second SVG -->
  <path d="M6 3.14834V5.64717M1 1.89893V6.89659M23.5 3.14834V5.64717M28.5 1.89893V6.89659M6 11.8943V13.1437C6 15.4632 6.92187 17.6878 8.56282 19.328C10.2038 20.9681 12.4294 21.8896 14.75 21.8896M14.75 21.8896C17.0706 21.8896 19.2962 20.9681 20.9372 19.328C22.5781 17.6878 23.5 15.4632 23.5 13.1437V11.8943M14.75 21.8896V26.8872M14.75 26.8872H11M14.75 26.8872H18.5" stroke="#2E48DE" stroke-width="1.875" stroke-linecap="round" stroke-linejoin="round" transform="translate(18)"/>
  <defs>
    <filter id="filter0_d_813_1372" x="0.0625" y="0.961426" width="17.375" height="24.8682" filterUnits="userSpaceOnUse" color-interpolation-filters="sRGB">
      <feFlood flood-opacity="0" result="BackgroundImageFix"/>
      <feColorMatrix in="SourceAlpha" type="matrix" values="0 0 0 0 0 0 0 0 0 0 0 0 0 0 0 0 0 0 127 0" result="hardAlpha"/>
      <feOffset dy="4"/>
      <feGaussianBlur stdDeviation="2"/>
      <feComposite in2="hardAlpha" operator="out"/>
      <feColorMatrix type="matrix" values="0 0 0 0 0 0 0 0 0 0 0 0 0 0 0 0 0 0 0.25 0"/>
      <feBlend mode="normal" in2="BackgroundImageFix" result="effect1_dropShadow_813_1372"/>
      <feBlend mode="normal" in="SourceGraphic" in2="effect1_dropShadow_813_1372" result="shape"/>
    </filter>
  </defs>
</svg>
